<svg width="132" height="20" viewBox="0 0 132 20" fill="none" xmlns="http://www.w3.org/2000/svg">
<path d="M9.94999 2.26159C10.121 1.9128 10.6153 1.9128 10.7863 2.26159L13.0007 6.77669C13.0686 6.9152 13.1999 7.0112 13.3518 7.03341L18.3032 7.75744C18.6857 7.81337 18.8384 8.28639 18.5617 8.55788L14.9788 12.0724C14.8689 12.1802 14.8187 12.3355 14.8447 12.4878L15.6905 17.4504C15.7558 17.8337 15.356 18.126 15.0138 17.9451L10.5852 15.602C10.4493 15.5302 10.287 15.5302 10.1512 15.602L5.72247 17.9451C5.38036 18.126 4.98052 17.8337 5.04585 17.4504L5.89166 12.4878C5.9176 12.3355 5.86745 12.1802 5.75754 12.0724L2.17466 8.55788C1.89789 8.28639 2.05061 7.81337 2.43311 7.75744L7.38453 7.03341C7.53641 7.0112 7.66772 6.9152 7.73564 6.77669L9.94999 2.26159Z" fill="#FFD700" stroke="#F1CB00" stroke-width="2" stroke-linejoin="round"/>
<path d="M37.7752 2.26159C37.9462 1.9128 38.4405 1.9128 38.6115 2.26159L40.8259 6.77669C40.8938 6.9152 41.0251 7.0112 41.177 7.03341L46.1284 7.75744C46.5109 7.81337 46.6636 8.28639 46.3869 8.55788L42.804 12.0724C42.6941 12.1802 42.6439 12.3355 42.6699 12.4878L43.5157 17.4504C43.581 17.8337 43.1812 18.126 42.839 17.9451L38.4104 15.602C38.2745 15.5302 38.1122 15.5302 37.9764 15.602L33.5477 17.9451C33.2056 18.126 32.8057 17.8337 32.871 17.4504L33.7169 12.4878C33.7428 12.3355 33.6926 12.1802 33.5827 12.0724L29.9999 8.55788C29.7231 8.28639 29.8758 7.81337 30.2583 7.75744L35.2097 7.03341C35.3616 7.0112 35.4929 6.9152 35.5608 6.77669L37.7752 2.26159Z" fill="#FFD700" stroke="#F1CB00" stroke-width="2" stroke-linejoin="round"/>
<path d="M65.5993 2.26159C65.7703 1.9128 66.2646 1.9128 66.4356 2.26159L68.65 6.77669C68.7179 6.9152 68.8492 7.0112 69.0011 7.03341L73.9525 7.75744C74.335 7.81337 74.4877 8.28639 74.211 8.55788L70.6281 12.0724C70.5182 12.1802 70.468 12.3355 70.494 12.4878L71.3398 17.4504C71.4051 17.8337 71.0052 18.126 70.6631 17.9451L66.2345 15.602C66.0986 15.5302 65.9363 15.5302 65.8004 15.602L61.3718 17.9451C61.0297 18.126 60.6298 17.8337 60.6951 17.4504L61.5409 12.4878C61.5669 12.3355 61.5167 12.1802 61.4068 12.0724L57.824 8.55788C57.5472 8.28639 57.6999 7.81337 58.0824 7.75744L63.0338 7.03341C63.1857 7.0112 63.317 6.9152 63.3849 6.77669L65.5993 2.26159Z" fill="#FFD700" stroke="#F1CB00" stroke-width="2" stroke-linejoin="round"/>
<path d="M93.4226 2.26159C93.5937 1.9128 94.0879 1.9128 94.259 2.26159L96.4733 6.77669C96.5413 6.9152 96.6726 7.0112 96.8245 7.03341L101.776 7.75744C102.158 7.81337 102.311 8.28639 102.034 8.55788L98.4514 12.0724C98.3415 12.1802 98.2914 12.3355 98.3173 12.4878L99.1631 17.4504C99.2285 17.8337 98.8286 18.126 98.4865 17.9451L94.0578 15.602C93.922 15.5302 93.7597 15.5302 93.6238 15.602L89.1951 17.9451C88.853 18.126 88.4532 17.8337 88.5185 17.4504L89.3643 12.4878C89.3903 12.3355 89.3401 12.1802 89.2302 12.0724L85.6473 8.55788C85.3705 8.28639 85.5233 7.81337 85.9058 7.75744L90.8572 7.03341C91.0091 7.0112 91.1404 6.9152 91.2083 6.77669L93.4226 2.26159Z" fill="#FFD700" stroke="#F1CB00" stroke-width="2" stroke-linejoin="round"/>
<path d="M121.247 2.26159C121.418 1.9128 121.912 1.9128 122.083 2.26159L124.298 6.77669C124.365 6.9152 124.497 7.0112 124.649 7.03341L129.6 7.75744C129.983 7.81337 130.135 8.28639 129.859 8.55788L126.276 12.0724C126.166 12.1802 126.116 12.3355 126.142 12.4878L126.987 17.4504C127.053 17.8337 126.653 18.126 126.311 17.9451L121.882 15.602C121.746 15.5302 121.584 15.5302 121.448 15.602L117.019 17.9451C116.677 18.126 116.277 17.8337 116.343 17.4504L117.189 12.4878C117.214 12.3355 117.164 12.1802 117.054 12.0724L113.472 8.55788C113.195 8.28639 113.347 7.81337 113.73 7.75744L118.681 7.03341C118.833 7.0112 118.965 6.9152 119.033 6.77669L121.247 2.26159Z" fill="#FFD700" stroke="#F1CB00" stroke-width="2" stroke-linejoin="round"/>
</svg>
